<svg width="36" height="36" viewBox="0 0 36 36" fill="none" xmlns="http://www.w3.org/2000/svg">
<g clip-path="url(#clip0_11_357)">
<path d="M29 19.41C28.8684 19.4108 28.7379 19.3855 28.6161 19.3358C28.4943 19.286 28.3834 19.2127 28.29 19.12L18 8.83L7.71 19.12C7.5187 19.2838 7.27262 19.3694 7.02094 19.3597C6.76927 19.35 6.53053 19.2457 6.35243 19.0676C6.17434 18.8895 6.07001 18.6507 6.06029 18.3991C6.05056 18.1474 6.13617 17.9013 6.3 17.71L18 6L29.71 17.71C29.8476 17.8504 29.9408 18.0282 29.9779 18.2213C30.015 18.4143 29.9944 18.614 29.9186 18.7954C29.8429 18.9768 29.7153 19.1318 29.5519 19.2411C29.3885 19.3505 29.1966 19.4092 29 19.41Z" fill="black"/>
<path d="M29 30.41C28.8684 30.4108 28.7379 30.3855 28.6161 30.3358C28.4943 30.286 28.3834 30.2127 28.29 30.12L18 19.83L7.71 30.12C7.5187 30.2838 7.27262 30.3694 7.02094 30.3597C6.76927 30.35 6.53053 30.2457 6.35243 30.0676C6.17434 29.8895 6.07001 29.6507 6.06029 29.3991C6.05056 29.1474 6.13617 28.9013 6.3 28.71L18 17L29.71 28.71C29.8476 28.8504 29.9408 29.0282 29.9779 29.2213C30.015 29.4143 29.9944 29.614 29.9186 29.7954C29.8429 29.9768 29.7153 30.1318 29.5519 30.2411C29.3885 30.3505 29.1966 30.4092 29 30.41Z" fill="black"/>
</g>
<defs>
<clipPath id="clip0_11_357">
<rect width="36" height="36" fill="white"/>
</clipPath>
</defs>
</svg>
