<svg width="36" height="36" viewBox="0 0 36 36" fill="none" xmlns="http://www.w3.org/2000/svg">
<g clip-path="url(#clip0_5_421)">
<path d="M24.82 15.8C24.6326 15.6138 24.3792 15.5092 24.115 15.5092C23.8508 15.5092 23.5974 15.6138 23.41 15.8C23.2237 15.9874 23.1192 16.2408 23.1192 16.505C23.1192 16.7692 23.2237 17.0227 23.41 17.21L27.2 21H9V3.78003C9 3.51481 8.89464 3.26046 8.70711 3.07292C8.51957 2.88539 8.26522 2.78003 8 2.78003C7.73478 2.78003 7.48043 2.88539 7.29289 3.07292C7.10536 3.26046 7 3.51481 7 3.78003V21C7 21.5305 7.21071 22.0392 7.58579 22.4142C7.96086 22.7893 8.46957 23 9 23H27.15L23.41 26.75C23.2237 26.9374 23.1192 27.1908 23.1192 27.455C23.1192 27.7192 23.2237 27.9727 23.41 28.16C23.5963 28.3448 23.8477 28.4489 24.11 28.45C24.2416 28.4508 24.3721 28.4256 24.4939 28.3758C24.6157 28.326 24.7266 28.2527 24.82 28.16L31 22L24.82 15.8Z" fill="black"/>
</g>
<defs>
<clipPath id="clip0_5_421">
<rect width="36" height="36" fill="white"/>
</clipPath>
</defs>
</svg>
