<svg width="36" height="36" viewBox="0 0 36 36" fill="none" xmlns="http://www.w3.org/2000/svg">
<g clip-path="url(#clip0_249_462)">
<path d="M25.18 12.32L19.27 18.13C18.6325 17.8229 17.9069 17.7511 17.2215 17.9272C16.5362 18.1033 15.9351 18.516 15.5246 19.0923C15.114 19.6687 14.9204 20.3717 14.978 21.0769C15.0356 21.7822 15.3407 22.4445 15.8393 22.9466C16.3379 23.4487 16.9979 23.7585 17.7028 23.821C18.4077 23.8836 19.112 23.695 19.6912 23.2886C20.2705 22.8821 20.6874 22.284 20.8684 21.5999C21.0493 20.9157 20.9826 20.1897 20.68 19.55L26.6 13.74L25.18 12.32Z" fill="black"/>
<path d="M18 4.25001C14.8527 4.24641 11.7701 5.14355 9.11631 6.83548C6.46249 8.52742 4.34829 10.9435 3.02339 13.7983C1.6985 16.6531 1.21826 19.8275 1.63939 22.9465C2.06051 26.0655 3.36542 28.9988 5.39999 31.4L5.69999 31.75H30.3L30.6 31.4C32.6346 28.9988 33.9395 26.0655 34.3606 22.9465C34.7817 19.8275 34.3015 16.6531 32.9766 13.7983C31.6517 10.9435 29.5375 8.52742 26.8837 6.83548C24.2299 5.14355 21.1473 4.24641 18 4.25001ZM29.34 29.75H6.65999C4.86567 27.5047 3.78273 24.7748 3.54999 21.91H6.99999V19.91H3.54999C3.71746 16.7347 4.93045 13.704 6.99999 11.29L9.44999 13.74L10.86 12.33L8.42999 9.87001C10.8133 7.76355 13.8265 6.5048 17 6.29001V9.79001H19V6.30001C22.5055 6.55423 25.7986 8.07563 28.2644 10.5801C30.7303 13.0846 32.2003 16.401 32.4 19.91H28.92V21.91H32.45C32.2172 24.7748 31.1343 27.5047 29.34 29.75Z" fill="black"/>
</g>
<defs>
<clipPath id="clip0_249_462">
<rect width="36" height="36" fill="white"/>
</clipPath>
</defs>
</svg>
