<svg width="36" height="36" viewBox="0 0 36 36" fill="none" xmlns="http://www.w3.org/2000/svg">
<g clip-path="url(#clip0_2_266)">
<path d="M25.39 25.45C25.1683 25.3062 24.8987 25.256 24.6402 25.3104C24.3816 25.3647 24.155 25.5192 24.01 25.74C22.6 27.9 20.01 30.55 17.7 31.44C15.39 32.33 13.58 32.01 12.86 31.44C12.55 31.17 11.74 30.44 12.43 27.95C12.89 26.29 15.75 18.47 16.43 16.57L14.25 16.85C13.56 18.71 10.96 25.69 10.49 27.43C9.80998 29.92 10.15 31.73 11.58 32.99C12.5791 33.691 13.7803 34.0457 15 34C16.1835 33.9829 17.3534 33.7456 18.45 33.3C21.24 32.21 24.17 29.18 25.71 26.83C25.7798 26.7184 25.8269 26.5942 25.8486 26.4644C25.8703 26.3346 25.8662 26.2018 25.8365 26.0736C25.8067 25.9454 25.752 25.8243 25.6754 25.7173C25.5988 25.6103 25.5018 25.5195 25.39 25.45Z" fill="black"/>
<path d="M19.3 11C20.19 11 21.06 10.7361 21.8001 10.2416C22.5401 9.74715 23.1169 9.04434 23.4574 8.22208C23.798 7.39981 23.8872 6.49501 23.7135 5.6221C23.5399 4.74918 23.1113 3.94736 22.482 3.31802C21.8526 2.68868 21.0508 2.2601 20.1779 2.08647C19.305 1.91283 18.4002 2.00195 17.5779 2.34254C16.7556 2.68314 16.0528 3.25991 15.5584 3.99994C15.0639 4.73996 14.8 5.60999 14.8 6.5C14.8 7.69348 15.2741 8.83807 16.118 9.68198C16.9619 10.5259 18.1065 11 19.3 11ZM19.3 4C19.7944 4 20.2778 4.14662 20.6889 4.42133C21.1 4.69603 21.4205 5.08648 21.6097 5.54329C21.7989 6.00011 21.8484 6.50278 21.752 6.98773C21.6555 7.47268 21.4174 7.91814 21.0678 8.26777C20.7181 8.6174 20.2727 8.8555 19.7877 8.95197C19.3028 9.04843 18.8001 8.99892 18.3433 8.8097C17.8865 8.62048 17.496 8.30005 17.2213 7.88893C16.9466 7.4778 16.8 6.99446 16.8 6.5C16.8 5.83696 17.0634 5.20108 17.5322 4.73223C18.0011 4.26339 18.6369 4 19.3 4Z" fill="black"/>
<path d="M11.81 15C11.87 15 18.08 14.18 19.54 14C20.19 13.9 20.68 14 20.84 14.15C21 14.3 21.05 14.95 20.77 15.83C20.16 17.69 17.08 26.83 16.18 29.54C16.6199 29.4498 17.0514 29.3227 17.47 29.16C17.8703 28.9944 18.2552 28.7936 18.62 28.56C19.85 25 22.15 18.1 22.67 16.52C23.19 14.94 23.06 13.74 22.37 12.92C21.9764 12.5209 21.4837 12.2337 20.9424 12.0878C20.4012 11.942 19.8309 11.9427 19.29 12.09C17.86 12.24 11.82 13.03 11.56 13.09C11.2948 13.1245 11.0541 13.2629 10.891 13.4748C10.7278 13.6867 10.6555 13.9548 10.69 14.22C10.7245 14.4852 10.8629 14.7259 11.0748 14.889C11.2867 15.0522 11.5548 15.1245 11.82 15.09L11.81 15Z" fill="black"/>
</g>
<defs>
<clipPath id="clip0_2_266">
<rect width="36" height="36" fill="white"/>
</clipPath>
</defs>
</svg>
