<svg width="36" height="36" viewBox="0 0 36 36" fill="none" xmlns="http://www.w3.org/2000/svg">
<g clip-path="url(#clip0_1_172)">
<path d="M33.59 6.18999C33.4673 6.09018 33.3226 6.02091 33.1679 5.98788C33.0132 5.95485 32.8528 5.959 32.7 5.99999L23.09 8.99999L13.46 4.10999C13.3284 4.04907 13.1851 4.01752 13.04 4.01752C12.895 4.01752 12.7516 4.04907 12.62 4.10999L2.62001 8.19999C2.43582 8.27566 2.27841 8.4046 2.16795 8.57028C2.05749 8.73597 1.99902 8.93086 2.00001 9.12999V29.61C2.00083 29.7738 2.04186 29.9349 2.1195 30.0791C2.19715 30.2233 2.30902 30.3462 2.4453 30.4371C2.58158 30.5279 2.73808 30.5839 2.90107 30.6001C3.06405 30.6163 3.22851 30.5922 3.38001 30.53L13 26.58L22.59 31.5C22.7323 31.5729 22.8901 31.6106 23.05 31.61C23.1494 31.6251 23.2506 31.6251 23.35 31.61L33.35 28.49C33.5607 28.424 33.7437 28.2901 33.8703 28.1092C33.9969 27.9283 34.0601 27.7106 34.05 27.49V6.99999C34.0448 6.83779 34.0002 6.67928 33.9201 6.53816C33.8399 6.39704 33.7267 6.27755 33.59 6.18999ZM32 26.75L23.68 29.35V27.06H22.08V29.06L13.68 24.75V23.06H12.08V24.78L4.00001 28.11V9.78999L12.08 6.45999V8.80999H13.68V6.46999L22.08 10.77V12.87H23.68V11L32 8.35999V26.75Z" fill="black"/>
<path d="M23.68 15.06H22.08V18.87H23.68V15.06Z" fill="black"/>
<path d="M23.68 21.06H22.08V24.87H23.68V21.06Z" fill="black"/>
<path d="M13.68 11.06H12.08V14.87H13.68V11.06Z" fill="black"/>
<path d="M13.68 17.13H12.08V20.88H13.68V17.13Z" fill="black"/>
</g>
<defs>
<clipPath id="clip0_1_172">
<rect width="36" height="36" fill="white"/>
</clipPath>
</defs>
</svg>