<svg width="36" height="36" viewBox="0 0 36 36" fill="none" xmlns="http://www.w3.org/2000/svg">
<g clip-path="url(#clip0_5_461)">
<path d="M33 6.68999C32.82 3.27999 23.53 2.35999 18 2.35999C12.47 2.35999 3 3.28999 3 6.77999V29.37C3 32.86 12.43 33.8 18 33.8C23.57 33.8 33 32.87 33 29.37V6.77999C33 6.77999 33 6.69999 33 6.68999ZM31 14.25C30.67 15.11 25.94 16.7 18 16.7C14.2862 16.7948 10.5789 16.3364 7 15.34V17.42C10.5968 18.3155 14.2937 18.7457 18 18.7C22 18.7 27.93 18.22 31 16.7V21.87C30.67 22.73 25.94 24.32 18 24.32C14.2842 24.4018 10.5769 23.9299 7 22.92V25C10.5968 25.8955 14.2937 26.3257 18 26.28C22 26.28 27.93 25.8 31 24.28V29.38C30.65 30.24 25.92 31.83 18 31.83C10.08 31.83 5.3 30.2 5 29.37V6.81999C5.3 5.99999 10 4.35999 18 4.35999C25.77 4.35999 30.46 5.88999 31 6.72999C30.48 7.59999 25.79 9.11999 18 9.11999C14.2863 9.21254 10.5793 8.75423 7 7.75999V9.84999C10.5977 10.7399 14.2942 11.1666 18 11.12C22 11.12 27.93 10.64 31 9.11999V14.25Z" fill="black"/>
</g>
<defs>
<clipPath id="clip0_5_461">
<rect width="36" height="36" fill="white"/>
</clipPath>
</defs>
</svg>
