<svg width="36" height="36" viewBox="0 0 36 36" fill="none" xmlns="http://www.w3.org/2000/svg">
<g clip-path="url(#clip0_5_454)">
<path d="M12.19 8.84C12.094 8.5457 11.9063 8.28986 11.6543 8.10993C11.4024 7.92999 11.0996 7.8354 10.79 7.84H10.67C10.3574 7.83267 10.0508 7.92588 9.79515 8.10589C9.53952 8.28591 9.34843 8.54324 9.25001 8.84L1.14001 26.56C1.04713 26.7427 0.999136 26.945 1.00001 27.15C1.00001 27.4152 1.10537 27.6696 1.2929 27.8571C1.48044 28.0446 1.7348 28.15 2.00001 28.15C2.23857 28.1534 2.47199 28.0806 2.66625 27.9421C2.86052 27.8036 3.00548 27.6066 3.08001 27.38L5.16001 22.73H16.16L18.24 27.32C18.322 27.5547 18.4726 27.7593 18.6723 27.9073C18.8721 28.0553 19.1116 28.1399 19.36 28.15C19.6464 28.15 19.9211 28.0362 20.1237 27.8337C20.3262 27.6311 20.44 27.3564 20.44 27.07C20.428 26.8731 20.3806 26.68 20.3 26.5L12.19 8.84ZM6.08001 20.71L10.67 10.49L15.27 20.71H6.08001Z" fill="black"/>
<path d="M32.24 14.78C31.6098 14.2223 30.8751 13.7955 30.0786 13.5242C29.282 13.253 28.4395 13.1428 27.6 13.2C25.9799 13.1944 24.3774 13.5353 22.9 14.2C22.7295 14.2789 22.5846 14.4042 22.482 14.5616C22.3795 14.719 22.3233 14.9021 22.32 15.09C22.339 15.3311 22.4446 15.5571 22.6175 15.7263C22.7903 15.8954 23.0186 15.9962 23.26 16.01C23.3935 16.0047 23.5252 15.9777 23.65 15.93C24.8168 15.3939 26.086 15.1176 27.37 15.12C30.07 15.12 31.65 16.45 31.65 19.04V19.54C30.2144 19.1216 28.7252 18.9161 27.23 18.93C23.59 18.93 21.09 20.54 21.09 23.57V23.62C21.09 26.57 23.79 28.1 26.46 28.1C27.46 28.1291 28.4525 27.9193 29.3551 27.488C30.2577 27.0567 31.0445 26.4163 31.65 25.62V26.9C31.65 27.1652 31.7554 27.4196 31.9429 27.6071C32.1304 27.7946 32.3848 27.9 32.65 27.9C32.7865 27.9002 32.9217 27.8725 33.0471 27.8186C33.1725 27.7646 33.2855 27.6855 33.3792 27.5862C33.4729 27.4869 33.5452 27.3695 33.5918 27.2411C33.6384 27.1128 33.6582 26.9763 33.65 26.84V19C33.7094 18.238 33.6151 17.4719 33.3729 16.747C33.1307 16.0221 32.7455 15.3532 32.24 14.78ZM31.68 22.48C31.68 24.76 29.51 26.37 26.87 26.37C24.93 26.37 23.26 25.31 23.26 23.51V23.45C23.26 21.65 24.76 20.45 27.46 20.45C28.8883 20.454 30.309 20.6594 31.68 21.06V22.48Z" fill="black"/>
</g>
<defs>
<clipPath id="clip0_5_454">
<rect width="36" height="36" fill="white"/>
</clipPath>
</defs>
</svg>
